<svg width="61" height="62" viewBox="0 0 61 62" fill="none" xmlns="http://www.w3.org/2000/svg">
<g filter="url(#filter0_ddd)">
<rect x="14" y="11" width="33" height="33" rx="10" fill="#29404F"/>
<path d="M24 21C24 22.1046 23.1046 23 22 23C20.8954 23 20 22.1046 20 21C20 19.8954 20.8954 19 22 19C23.1046 19 24 19.8954 24 21Z" fill="#ECECEC"/>
<path d="M24 28C24 29.1046 23.1046 30 22 30C20.8954 30 20 29.1046 20 28C20 26.8954 20.8954 26 22 26C23.1046 26 24 26.8954 24 28Z" fill="#ECECEC"/>
<path d="M24 35C24 36.1046 23.1046 37 22 37C20.8954 37 20 36.1046 20 35C20 33.8954 20.8954 33 22 33C23.1046 33 24 33.8954 24 35Z" fill="#ECECEC"/>
<line x1="27.792" y1="21" x2="39.792" y2="21" stroke="#ECECEC" stroke-width="2" stroke-linecap="round" stroke-linejoin="round"/>
<line x1="27.792" y1="28" x2="39.792" y2="28" stroke="#ECECEC" stroke-width="2" stroke-linecap="round" stroke-linejoin="round"/>
<line x1="27.792" y1="35" x2="39.792" y2="35" stroke="#ECECEC" stroke-width="2" stroke-linecap="round" stroke-linejoin="round"/>
</g>
<defs>
<filter id="filter0_ddd" x="0" y="0" width="61" height="62" filterUnits="userSpaceOnUse" color-interpolation-filters="sRGB">
<feFlood flood-opacity="0" result="BackgroundImageFix"/>
<feColorMatrix in="SourceAlpha" type="matrix" values="0 0 0 0 0 0 0 0 0 0 0 0 0 0 0 0 0 0 127 0"/>
<feOffset dy="3"/>
<feGaussianBlur stdDeviation="7"/>
<feColorMatrix type="matrix" values="0 0 0 0 0 0 0 0 0 0 0 0 0 0 0 0 0 0 0.12 0"/>
<feBlend mode="normal" in2="BackgroundImageFix" result="effect1_dropShadow"/>
<feColorMatrix in="SourceAlpha" type="matrix" values="0 0 0 0 0 0 0 0 0 0 0 0 0 0 0 0 0 0 127 0"/>
<feOffset dy="8"/>
<feGaussianBlur stdDeviation="5"/>
<feColorMatrix type="matrix" values="0 0 0 0 0 0 0 0 0 0 0 0 0 0 0 0 0 0 0.14 0"/>
<feBlend mode="normal" in2="effect1_dropShadow" result="effect2_dropShadow"/>
<feColorMatrix in="SourceAlpha" type="matrix" values="0 0 0 0 0 0 0 0 0 0 0 0 0 0 0 0 0 0 127 0"/>
<feOffset dy="4"/>
<feGaussianBlur stdDeviation="2"/>
<feColorMatrix type="matrix" values="0 0 0 0 0 0 0 0 0 0 0 0 0 0 0 0 0 0 0.25 0"/>
<feBlend mode="normal" in2="effect2_dropShadow" result="effect3_dropShadow"/>
<feBlend mode="normal" in="SourceGraphic" in2="effect3_dropShadow" result="shape"/>
</filter>
</defs>
</svg>
