<svg width="99" height="118" viewBox="0 0 99 118" fill="none" xmlns="http://www.w3.org/2000/svg">
<path d="M17.9324 30.6568C8.82171 30.6568 1.41089 38.1273 1.41089 47.311C1.41089 53.1249 4.49359 58.5983 9.45587 61.5975L11.3125 58.483C7.43005 56.1365 5.01853 51.855 5.01853 47.311C5.01853 40.1315 10.8122 34.2892 17.9324 34.2892C18.4415 34.2892 18.9365 34.3193 19.4297 34.3814L20.9165 34.5623L21.3674 33.1257C22.4913 29.5554 25.7449 27.1557 29.4617 27.1557C29.8898 27.1557 30.3161 27.1841 30.716 27.2426L32.7752 27.4342V25.3396C32.7752 13.7508 42.1396 4.32229 53.6495 4.32229C64.9234 4.32229 74.0782 13.1886 74.4921 24.5095L74.5908 26.2583H76.3294C84.6243 26.2583 90.5939 34.2689 88.4348 42.1995L88.0543 43.5882L89.3103 44.2764C92.0424 45.7769 93.7388 48.6466 93.7388 51.7663C93.7388 55.5158 91.2621 58.8838 87.7143 59.9586L88.7536 63.4385C93.8128 61.9043 97.3464 57.1049 97.3464 51.7663C97.3464 47.7846 95.4105 44.0884 92.2151 41.8253C93.9169 32.436 87.2553 23.6822 77.9818 22.7129C76.7029 10.2355 66.3168 0.689941 53.6495 0.689941C40.7867 0.689941 30.2086 10.7286 29.2398 23.5252C24.5224 23.6103 20.3598 26.4055 18.4468 30.6657C18.2759 30.6604 18.1051 30.6568 17.9324 30.6568Z" fill="#002449"/>
<path fill-rule="evenodd" clip-rule="evenodd" d="M82.5327 105.741H16.9297V87.4097H82.5327V105.741ZM78.8881 91.0806H20.5743V102.07H78.8881V91.0806Z" fill="#002449"/>
<path fill-rule="evenodd" clip-rule="evenodd" d="M16.9297 66.9639H82.5327V85.2949H16.9297V66.9639ZM20.5743 81.6243H78.8881V70.6343H20.5743V81.6243Z" fill="#002449"/>
<path fill-rule="evenodd" clip-rule="evenodd" d="M16.9297 45.8125H82.5327V64.1435H16.9297V45.8125ZM20.5743 60.4727H78.8881V49.4834H20.5743V60.4727Z" fill="#002449"/>
<path fill-rule="evenodd" clip-rule="evenodd" d="M28.9219 54.9787C28.9219 56.1443 27.9727 57.093 26.8049 57.093C25.6387 57.093 24.6895 56.1443 24.6895 54.9787C24.6895 53.8115 25.6387 52.8628 26.8049 52.8628C27.9727 52.8628 28.9219 53.8115 28.9219 54.9787ZM27.8868 54.9787C27.8868 54.3826 27.4012 53.8973 26.8049 53.8973C26.2085 53.8973 25.7245 54.3826 25.7245 54.9787C25.7245 55.5748 26.2085 56.0585 26.8049 56.0585C27.4012 56.0585 27.8868 55.5748 27.8868 54.9787Z" fill="#002449"/>
<path fill-rule="evenodd" clip-rule="evenodd" d="M28.9219 76.1293C28.9219 77.296 27.9727 78.2444 26.8049 78.2444C25.6387 78.2444 24.6895 77.296 24.6895 76.1293C24.6895 74.9625 25.6387 74.0142 26.8049 74.0142C27.9727 74.0142 28.9219 74.9625 28.9219 76.1293ZM27.8868 76.1293C27.8868 75.5335 27.4012 75.0499 26.8049 75.0499C26.2085 75.0499 25.7245 75.5335 25.7245 76.1293C25.7245 76.7252 26.2085 77.2087 26.8049 77.2087C27.4012 77.2087 27.8868 76.7252 27.8868 76.1293Z" fill="#002449"/>
<path fill-rule="evenodd" clip-rule="evenodd" d="M24.6895 96.5761C24.6895 95.4089 25.6387 94.4602 26.8049 94.4602C27.9727 94.4602 28.9219 95.4089 28.9219 96.5761C28.9219 97.7417 27.9727 98.6904 26.8049 98.6904C25.6387 98.6904 24.6895 97.7417 24.6895 96.5761ZM25.7245 96.5761C25.7245 97.1721 26.2085 97.6559 26.8049 97.6559C27.4012 97.6559 27.8868 97.1721 27.8868 96.5761C27.8868 95.98 27.4012 95.4948 26.8049 95.4948C26.2085 95.4948 25.7245 95.98 25.7245 96.5761Z" fill="#002449"/>
<rect x="57.1382" y="53.5679" width="3.52704" height="3.52519" fill="#002449"/>
<rect x="63.4868" y="53.5679" width="3.5271" height="3.52519" fill="#002449"/>
<rect x="70.5408" y="53.5679" width="3.52701" height="3.52519" fill="#002449"/>
<rect x="57.1382" y="73.3091" width="3.52704" height="3.52522" fill="#002449"/>
<rect x="63.4868" y="73.3091" width="3.5271" height="3.52522" fill="#002449"/>
<rect x="70.5408" y="73.3091" width="3.52701" height="3.52522" fill="#002449"/>
<rect x="57.1382" y="95.1653" width="3.52704" height="3.52519" fill="#002449"/>
<rect x="63.4868" y="95.1653" width="3.5271" height="3.52519" fill="#002449"/>
<rect x="70.5408" y="95.1653" width="3.52701" height="3.52519" fill="#002449"/>
<path d="M98.0517 113.158H50.8459V107.151H47.2059V113.158H0V117.021H98.0517V113.158Z" fill="#002449"/>
<path d="M52.9058 11.3125V7.74023C43.1815 7.74023 35.2705 15.6471 35.2705 25.3662H38.8447C38.8447 17.6164 45.1519 11.3125 52.9058 11.3125Z" fill="#002449"/>
</svg>
