<svg width="48" height="53" viewBox="0 0 48 53" fill="none" xmlns="http://www.w3.org/2000/svg">
<g filter="url(#filter0_d_15961_4756)">
<path d="M27.468 43.632C32.697 39.03 42 29.628 42 21C42 16.2261 40.1036 11.6477 36.7279 8.27208C33.3523 4.89642 28.7739 3 24 3C19.2261 3 14.6477 4.89642 11.2721 8.27208C7.89642 11.6477 6 16.2261 6 21C6 29.628 15.3 39.03 20.532 43.632C21.4863 44.4838 22.7208 44.9546 24 44.9546C25.2792 44.9546 26.5137 44.4838 27.468 43.632ZM18 21C18 19.4087 18.6321 17.8826 19.7574 16.7574C20.8826 15.6321 22.4087 15 24 15C25.5913 15 27.1174 15.6321 28.2426 16.7574C29.3679 17.8826 30 19.4087 30 21C30 22.5913 29.3679 24.1174 28.2426 25.2426C27.1174 26.3679 25.5913 27 24 27C22.4087 27 20.8826 26.3679 19.7574 25.2426C18.6321 24.1174 18 22.5913 18 21Z" fill="#29404F"/>
<circle cx="24" cy="21" r="6" fill="currentColor"/>
</g>
<defs>
<filter id="filter0_d_15961_4756" x="-4" y="0" width="56" height="56" filterUnits="userSpaceOnUse" color-interpolation-filters="sRGB">
<feFlood flood-opacity="0" result="BackgroundImageFix"/>
<feColorMatrix in="SourceAlpha" type="matrix" values="0 0 0 0 0 0 0 0 0 0 0 0 0 0 0 0 0 0 127 0" result="hardAlpha"/>
<feOffset dy="4"/>
<feGaussianBlur stdDeviation="2"/>
<feComposite in2="hardAlpha" operator="out"/>
<feColorMatrix type="matrix" values="0 0 0 0 0 0 0 0 0 0 0 0 0 0 0 0 0 0 0.25 0"/>
<feBlend mode="normal" in2="BackgroundImageFix" result="effect1_dropShadow_15961_4756"/>
<feBlend mode="normal" in="SourceGraphic" in2="effect1_dropShadow_15961_4756" result="shape"/>
</filter>
</defs>
</svg>
