<svg width="33" height="32" viewBox="0 0 33 32" fill="none" xmlns="http://www.w3.org/2000/svg">
<path d="M2.43795 0.308034L15.994 13.854L29.406 0.444034C30.32 -0.369966 31.266 0.116034 31.644 0.524034C31.8864 0.819502 32.0115 1.19397 31.9953 1.57584C31.979 1.95771 31.8226 2.32021 31.556 2.59403L18.142 16.002L31.556 29.406C32.152 29.906 32.152 30.886 31.674 31.434C31.194 31.98 30.314 32.296 29.484 31.648L15.994 18.15L2.48795 31.654C1.89595 32.184 0.919953 32.076 0.437953 31.55C-0.046047 31.022 -0.230047 30.11 0.387953 29.466L13.846 16.002L0.443953 2.59403C-0.0460474 2.05403 -0.216047 1.06603 0.443953 0.444034C1.10395 -0.177966 2.08795 -0.0919661 2.43795 0.308034Z" fill="white"/>
</svg>
