<svg width="27" height="26" viewBox="0 0 27 26" fill="none" xmlns="http://www.w3.org/2000/svg">
<circle cx="13.5" cy="13" r="10.8333" fill="white"/>
<path d="M13.5 2.16663C7.53079 2.16663 2.66663 7.03079 2.66663 13C2.66663 18.9691 7.53079 23.8333 13.5 23.8333C19.4691 23.8333 24.3333 18.9691 24.3333 13C24.3333 7.03079 19.4691 2.16663 13.5 2.16663ZM12.4166 10.8333V7.58329C12.4166 6.98746 12.9041 6.49996 13.5 6.49996C14.0958 6.49996 14.5833 6.98746 14.5833 7.58329V10.8333H16.5225C17.01 10.8333 17.2483 11.4183 16.9016 11.7541L13.8791 14.7766C13.6625 14.9933 13.3266 14.9933 13.11 14.7766L10.0875 11.7541C10.0126 11.6778 9.96202 11.5809 9.94209 11.4759C9.92217 11.3708 9.93379 11.2622 9.9755 11.1637C10.0172 11.0652 10.0871 10.9813 10.1765 10.9225C10.2658 10.8637 10.3705 10.8327 10.4775 10.8333H12.4166ZM17.8333 18.4166H9.16663C8.57079 18.4166 8.08329 17.9291 8.08329 17.3333C8.08329 16.7375 8.57079 16.25 9.16663 16.25H17.8333C18.4291 16.25 18.9166 16.7375 18.9166 17.3333C18.9166 17.9291 18.4291 18.4166 17.8333 18.4166Z" fill="#15BC76"/>
</svg>
