<svg width="75" height="69" viewBox="0 0 75 69" fill="none" xmlns="http://www.w3.org/2000/svg">
<path d="M25.0619 23.1607C24.2372 23.1607 23.4462 23.4594 22.8631 23.991C22.2799 24.5226 21.9523 25.2437 21.9523 25.9955C21.9523 26.7474 22.2799 27.4684 22.8631 28.0001C23.4462 28.5317 24.2372 28.8304 25.0619 28.8304H28.1714C28.9961 28.8304 29.787 28.5317 30.3702 28.0001C30.9533 27.4684 31.2809 26.7474 31.2809 25.9955C31.2809 25.2437 30.9533 24.5226 30.3702 23.991C29.787 23.4594 28.9961 23.1607 28.1714 23.1607H25.0619ZM40.6095 57.1786H18.8428C18.0181 57.1786 17.2272 56.8799 16.644 56.3483C16.0608 55.8167 15.7332 55.0956 15.7332 54.3438V14.6562C15.7332 13.9044 16.0608 13.1834 16.644 12.6517C17.2272 12.1201 18.0181 11.8214 18.8428 11.8214H34.3905V20.3259C34.3905 22.5814 35.3733 24.7446 37.1228 26.3395C38.8722 27.9344 41.245 28.8304 43.7191 28.8304H53.0477V34.5C53.0477 35.2518 53.3753 35.9729 53.9585 36.5045C54.5416 37.0362 55.3325 37.3348 56.1572 37.3348C56.9819 37.3348 57.7729 37.0362 58.356 36.5045C58.9392 35.9729 59.2668 35.2518 59.2668 34.5V25.8254C59.2344 25.565 59.1718 25.3085 59.0802 25.06V24.8049C58.9307 24.5134 58.7313 24.2455 58.4894 24.0112L39.8322 7.00222C39.5751 6.78172 39.2812 6.5999 38.9615 6.4636C38.8586 6.44719 38.7534 6.44719 38.6505 6.4636C38.3482 6.3162 38.0232 6.21108 37.6866 6.15177H18.8428C16.3687 6.15177 13.9959 7.04778 12.2464 8.64267C10.497 10.2376 9.51416 12.4007 9.51416 14.6562V54.3438C9.51416 56.5993 10.497 58.7624 12.2464 60.3573C13.9959 61.9522 16.3687 62.8482 18.8428 62.8482H40.6095C41.4342 62.8482 42.2252 62.5496 42.8083 62.0179C43.3915 61.4863 43.7191 60.7653 43.7191 60.0134C43.7191 59.2616 43.3915 58.5405 42.8083 58.0089C42.2252 57.4773 41.4342 57.1786 40.6095 57.1786ZM40.6095 15.8185L48.6632 23.1607H43.7191C42.8944 23.1607 42.1035 22.862 41.5203 22.3304C40.9372 21.7988 40.6095 21.0777 40.6095 20.3259V15.8185ZM43.7191 34.5H25.0619C24.2372 34.5 23.4462 34.7987 22.8631 35.3303C22.2799 35.8619 21.9523 36.583 21.9523 37.3348C21.9523 38.0867 22.2799 38.8077 22.8631 39.3393C23.4462 39.871 24.2372 40.1696 25.0619 40.1696H43.7191C44.5438 40.1696 45.3347 39.871 45.9179 39.3393C46.501 38.8077 46.8286 38.0867 46.8286 37.3348C46.8286 36.583 46.501 35.8619 45.9179 35.3303C45.3347 34.7987 44.5438 34.5 43.7191 34.5ZM64.5841 52.331C64.295 52.0653 63.9511 51.8544 63.5722 51.7105C63.1932 51.5666 62.7868 51.4925 62.3763 51.4925C61.9658 51.4925 61.5594 51.5666 61.1805 51.7105C60.8015 51.8544 60.4576 52.0653 60.1685 52.331L59.2668 53.1815V45.8393C59.2668 45.0875 58.9392 44.3664 58.356 43.8348C57.7729 43.3031 56.9819 43.0045 56.1572 43.0045C55.3325 43.0045 54.5416 43.3031 53.9585 43.8348C53.3753 44.3664 53.0477 45.0875 53.0477 45.8393V53.1815L52.1459 52.331C51.5604 51.7972 50.7662 51.4973 49.9382 51.4973C49.1101 51.4973 48.3159 51.7972 47.7304 52.331C47.1448 52.8648 46.8159 53.5888 46.8159 54.3438C46.8159 55.0987 47.1448 55.8227 47.7304 56.3565L53.9495 62.0261C54.2452 62.2842 54.5939 62.4865 54.9756 62.6214C55.3478 62.7714 55.7503 62.8489 56.1572 62.8489C56.5642 62.8489 56.9666 62.7714 57.3389 62.6214C57.7206 62.4865 58.0693 62.2842 58.365 62.0261L64.5841 56.3565C64.8755 56.093 65.1069 55.7794 65.2647 55.434C65.4226 55.0885 65.5039 54.718 65.5039 54.3438C65.5039 53.9695 65.4226 53.599 65.2647 53.2536C65.1069 52.9081 64.8755 52.5946 64.5841 52.331ZM37.5 51.5089C38.3247 51.5089 39.1156 51.2103 39.6988 50.6786C40.2819 50.147 40.6095 49.426 40.6095 48.6741C40.6095 47.9223 40.2819 47.2012 39.6988 46.6696C39.1156 46.138 38.3247 45.8393 37.5 45.8393H25.0619C24.2372 45.8393 23.4462 46.138 22.8631 46.6696C22.2799 47.2012 21.9523 47.9223 21.9523 48.6741C21.9523 49.426 22.2799 50.147 22.8631 50.6786C23.4462 51.2103 24.2372 51.5089 25.0619 51.5089H37.5Z" fill="#15BC76"/>
</svg>
