<svg width="28" height="28" viewBox="0 0 28 28" fill="none" xmlns="http://www.w3.org/2000/svg">
<circle cx="14" cy="14" r="10" fill="white"/>
<path d="M14.0002 2.4585C7.56016 2.4585 2.3335 7.68516 2.3335 14.1252C2.3335 20.5652 7.56016 25.7918 14.0002 25.7918C20.4402 25.7918 25.6668 20.5652 25.6668 14.1252C25.6668 7.68516 20.4402 2.4585 14.0002 2.4585ZM10.8385 19.1302L6.65016 14.9418C6.54215 14.8338 6.45647 14.7056 6.39801 14.5645C6.33956 14.4233 6.30947 14.2721 6.30947 14.1193C6.30947 13.9666 6.33956 13.8153 6.39801 13.6742C6.45647 13.5331 6.54215 13.4048 6.65016 13.2968C6.75817 13.1888 6.8864 13.1031 7.02753 13.0447C7.16865 12.9862 7.31991 12.9561 7.47266 12.9561C7.62542 12.9561 7.77667 12.9862 7.9178 13.0447C8.05892 13.1031 8.18715 13.1888 8.29516 13.2968L11.6668 16.6568L19.6935 8.63016C19.9116 8.41202 20.2075 8.28947 20.516 8.28947C20.8245 8.28947 21.1204 8.41202 21.3385 8.63016C21.5566 8.8483 21.6792 9.14417 21.6792 9.45266C21.6792 9.76116 21.5566 10.057 21.3385 10.2752L12.4835 19.1302C12.3756 19.2383 12.2474 19.3241 12.1062 19.3827C11.9651 19.4412 11.8138 19.4713 11.661 19.4713C11.5082 19.4713 11.3569 19.4412 11.2158 19.3827C11.0746 19.3241 10.9464 19.2383 10.8385 19.1302Z" fill="#15BC76"/>
</svg>
