<svg width="16" height="16" viewBox="0 0 16 16" fill="none" xmlns="http://www.w3.org/2000/svg">
<path d="M4.66667 10.6667C4.66667 10.7656 4.79711 10.8049 4.85391 10.7239C5.64624 9.59468 6.51309 8.85245 7.51495 8.5249C8.12652 8.32496 8.66667 8.86175 8.66667 9.50517V10.3334C8.66667 10.7007 9.00733 11 9.42867 11C9.67133 11 9.87867 10.8947 10.0173 10.7394C10.6922 10.031 11.7526 8.94749 12.6096 8.07613C13.3787 7.29408 13.3789 6.03916 12.6108 5.25609C11.7535 4.3821 10.6923 3.29323 10.0167 2.57537C9.85987 2.4209 9.64878 2.33402 9.42867 2.33337C9.00733 2.33337 8.66667 2.63137 8.66667 3.00004C8.66667 4.10461 7.69482 4.92834 6.76438 5.52362C5.17631 6.53964 4.66667 8.83936 4.66667 10.6667ZM2.66667 13.6667H12C12.1768 13.6667 12.3464 13.5965 12.4714 13.4714C12.5964 13.3464 12.6667 13.1769 12.6667 13V10.6056C12.6667 10.0065 11.9348 9.71619 11.5169 10.1454C11.3953 10.2702 11.3333 10.4315 11.3333 10.6058V10.9114C11.3333 11.6967 10.6967 12.3334 9.9114 12.3334H5.33333C4.22876 12.3334 3.33333 11.4379 3.33333 10.3334V6.33337C3.33333 5.2288 4.22876 4.33337 5.33333 4.33337H7.33333C7.70152 4.33337 8 4.0349 8 3.66671C8 3.29852 7.70152 3.00004 7.33333 3.00004H2.66667C2.48986 3.00004 2.32029 3.07028 2.19526 3.1953C2.07024 3.32033 2 3.4899 2 3.66671V13C2 13.1769 2.07024 13.3464 2.19526 13.4714C2.32029 13.5965 2.48986 13.6667 2.66667 13.6667Z" fill="white"/>
</svg>
