<svg width="58" height="55" viewBox="0 0 58 55" fill="none" xmlns="http://www.w3.org/2000/svg">
<path d="M31.5047 2.17405C30.5244 0.321052 27.4757 0.321052 26.4954 2.17405L0.995379 50.3407C0.765832 50.7724 0.652033 51.2562 0.665069 51.745C0.678105 52.2338 0.817531 52.7109 1.06976 53.1297C1.322 53.5486 1.67843 53.895 2.10434 54.1351C2.53025 54.3753 3.0111 54.501 3.50005 54.5H54.5C54.9887 54.5011 55.4692 54.3754 55.8948 54.1354C56.3204 53.8954 56.6766 53.5492 56.9286 53.1306C57.1805 52.712 57.3197 52.2352 57.3326 51.7467C57.3454 51.2583 57.2315 50.7749 57.0019 50.3436L31.5047 2.17405ZM31.8334 46H26.1667V40.3334H31.8334V46ZM26.1667 34.6667V20.5001H31.8334L31.8362 34.6667H26.1667Z" fill="#F86747"/>
</svg>
