<svg width="102" height="117" viewBox="0 0 102 117" fill="none" xmlns="http://www.w3.org/2000/svg">
<path fill-rule="evenodd" clip-rule="evenodd" d="M60.0508 113.049C63.017 113.049 65.4309 110.656 65.4309 107.715V102.692H69.1037V107.715C69.1037 112.657 65.0417 116.676 60.0508 116.676H9.87964C4.87795 116.676 0.808807 112.657 0.808807 107.715V43.5809H0V36.0886H0.808807V32.1086H0V24.6163H0.808807V9.55556C0.808807 4.6156 4.87795 0.59668 9.87964 0.59668H60.0508C65.0417 0.59668 69.1037 4.6156 69.1037 9.55556L69.1288 18.7518H4.48161V94.9289H59.2976V98.5563H4.48161V107.715C4.48161 110.656 6.90265 113.049 9.87964 113.049H60.0508ZM9.87965 4.22418C6.90267 4.22418 4.48163 6.61534 4.48163 9.55559V15.1243H65.4452L65.4309 9.5609C65.4309 6.61534 63.017 4.22418 60.0508 4.22418H9.87965Z" fill="#002449"/>
<rect x="30.9946" y="7.8606" width="9.73975" height="3.62749" fill="#002449"/>
<path d="M46.5073 7.8606H46.4822C45.4671 7.8606 44.6583 8.67182 44.6583 9.67434C44.6583 10.6769 45.4922 11.4881 46.5073 11.4881C47.5223 11.4881 48.3437 10.6769 48.3437 9.67434C48.3437 8.67182 47.5223 7.8606 46.5073 7.8606Z" fill="#002449"/>
<path d="M53.826 7.8606H53.8009C52.7859 7.8606 51.9771 8.67182 51.9771 9.67434C51.9771 10.6769 52.811 11.4881 53.826 11.4881C54.8411 11.4881 55.6624 10.6769 55.6624 9.67434C55.6624 8.67182 54.8411 7.8606 53.826 7.8606Z" fill="#002449"/>
<rect x="29.1619" y="104.152" width="11.5959" height="3.62747" fill="#002449"/>
<rect x="17.3024" y="22.5793" width="19.5889" height="3.62746" fill="#002449"/>
<rect x="17.3024" y="29.4553" width="19.5889" height="3.62747" fill="#002449"/>
<rect x="17.3024" y="36.333" width="19.5889" height="3.62747" fill="#002449"/>
<path d="M11.8559 22.5793H11.829C10.814 22.5793 10.007 23.3906 10.007 24.3931C10.007 25.3956 10.8409 26.2068 11.8559 26.2068C12.871 26.2068 13.6923 25.3956 13.6923 24.3931C13.6923 23.3906 12.871 22.5793 11.8559 22.5793Z" fill="#002449"/>
<path d="M11.8559 29.4553H11.829C10.814 29.4553 10.007 30.2665 10.007 31.2691C10.007 32.2716 10.8409 33.0828 11.8559 33.0828C12.871 33.0828 13.6923 32.2716 13.6923 31.2691C13.6923 30.2665 12.871 29.4553 11.8559 29.4553Z" fill="#002449"/>
<path d="M11.8559 36.333H11.829C10.814 36.333 10.007 37.1442 10.007 38.1467C10.007 39.1493 10.8409 39.9605 11.8559 39.9605C12.871 39.9605 13.6923 39.1493 13.6923 38.1467C13.6923 37.1442 12.871 36.333 11.8559 36.333Z" fill="#002449"/>
<path d="M41.6688 90.8301H56.9841V87.2027H45.3416V77.6292H56.2076V74.0017H45.3416V64.8887H56.2076V61.2612H45.3416V52.1465H56.2076V48.519H45.3416V39.406H56.2076V35.7785H45.3416V26.2068H97.5321V35.7785H59.7334V39.406H97.5321V48.519H59.7334V52.1465H97.5321V61.2612H59.7334V64.8887H97.5321V74.0017H59.7334V77.6292H97.5321V87.2027H85.9075V90.8301H101.205V22.5793H41.6688V90.8301Z" fill="#002449"/>
<path fill-rule="evenodd" clip-rule="evenodd" d="M61.116 89.0145C61.116 83.3856 65.7464 78.8052 71.4368 78.8052C77.1379 78.8052 81.7755 83.3856 81.7755 89.0145C81.7755 94.6364 77.1379 99.2097 71.4368 99.2097C65.7464 99.2097 61.116 94.6364 61.116 89.0145ZM64.7888 89.0146C64.7888 92.6368 67.7711 95.5824 71.4368 95.5824C75.1131 95.5824 78.1027 92.6368 78.1027 89.0146C78.1027 85.3854 75.1131 82.4327 71.4368 82.4327C67.7711 82.4327 64.7888 85.3854 64.7888 89.0146Z" fill="#002449"/>
<path d="M73.2733 85.01H69.6005V87.2028H67.3821V90.8303H69.6005V93.0213H73.2733V90.8303H75.4916V87.2028H73.2733V85.01Z" fill="#002449"/>
</svg>
