<svg width="131" height="118" viewBox="0 0 131 118" fill="none" xmlns="http://www.w3.org/2000/svg">
<path fill-rule="evenodd" clip-rule="evenodd" d="M118.003 117.048H12.3921C7.79715 117.048 3.79384 113.869 2.43034 109.138L0.0785072 100.974C-0.0958479 100.367 0.023654 99.7139 0.402729 99.2097C0.781805 98.7055 1.3754 98.4083 2.00621 98.4083H5.07604V4.73448C5.07604 2.51854 6.87542 0.716553 9.08816 0.716553H121.308C123.52 0.716553 125.32 2.51854 125.32 4.73448V98.4083H128.388C129.019 98.4083 129.613 98.7046 129.991 99.2097C130.371 99.7139 130.49 100.367 130.316 100.974L127.965 109.137C126.6 113.869 122.597 117.048 118.003 117.048ZM121.308 4.7345H9.08813V98.4083H53.1745H77.2198H121.308V4.7345ZM75.2138 102.43V103.71C75.2138 104.818 74.3136 105.719 73.2077 105.719H57.1866C56.0807 105.719 55.1805 104.818 55.1805 103.71V102.43H75.2138ZM5.07605 102.43V102.426H4.67249L6.28576 108.023C7.14872 111.018 9.60243 113.03 12.3921 113.03H118.003C120.793 113.03 123.246 111.018 124.11 108.023L125.722 102.426H125.32V102.43H79.226V103.71C79.226 107.034 76.5264 109.737 73.2078 109.737H57.1867C53.8681 109.737 51.1685 107.034 51.1685 103.71V102.43H5.07605Z" fill="#002449"/>
<path fill-rule="evenodd" clip-rule="evenodd" d="M112.391 9.46338C114.597 9.46338 116.392 11.2628 116.392 13.4756V92.5573H14.8772V13.4756C14.8772 11.2628 16.6718 9.46338 18.8786 9.46338H112.391ZM18.8786 88.5451H112.391V50.0148L108.157 54.1832C104.885 57.4409 99.5214 57.4483 96.2095 54.1822L95.8292 53.8108C94.7135 54.8188 93.2437 55.4203 91.6903 55.4203C90.0435 55.4203 88.5115 54.7417 87.3857 53.6307C84.5861 58.1979 78.4723 59.0518 74.5515 55.63L68.8561 50.6998C67.0615 49.1394 64.4239 49.2266 62.7172 50.8977L59.7885 53.8139C56.3256 57.2375 50.6109 57.083 47.3632 53.3231L43.904 49.3343C42.2823 47.4683 39.5206 47.2361 37.6215 48.8034C37.3912 48.9233 37.0266 49.2519 36.5446 49.6864L36.5442 49.6866L36.5441 49.6867C34.3058 51.7041 29.5372 56.002 23.9399 52.2769L18.8786 48.9433V88.5451ZM89.5489 49.2609C89.5489 48.0668 90.5102 47.0951 91.6902 47.0951C92.8821 47.0951 93.8511 48.0668 93.8511 49.2609C93.8511 49.5254 93.8003 49.7997 93.7085 50.0358C93.39 50.8566 92.5773 51.4081 91.6902 51.4081C90.7407 51.4081 89.8947 50.7675 89.6368 49.8702C89.5782 49.6557 89.5489 49.4568 89.5489 49.2609ZM105.347 51.3278L112.391 44.3941V13.4757H18.8786V44.1427L26.1448 48.9289C29.1518 50.9299 31.665 48.655 33.5319 46.9652C34.1121 46.44 34.6298 45.9714 35.0806 45.7051C38.6629 42.7488 43.8649 43.1847 46.9217 46.6994L50.3858 50.693C52.1358 52.721 55.1649 52.7488 56.975 50.9614L59.9106 48.0384C63.1334 44.8843 68.098 44.7295 71.4742 47.6662L77.1715 52.5983C79.3405 54.4875 82.6285 53.8792 84.0411 51.4571C84.4594 50.7361 84.9903 50.1359 85.571 49.5948C85.5685 49.5516 85.5645 49.5081 85.5604 49.4646C85.5539 49.3964 85.5475 49.3282 85.5475 49.2609C85.5475 45.854 88.3024 43.0829 91.6903 43.0829C95.088 43.0829 97.8526 45.854 97.8526 49.2609C97.8526 49.5289 97.816 49.7964 97.7794 50.0633L97.7746 50.0981L99.0191 51.3249C100.77 53.0548 103.612 53.0557 105.347 51.3278Z" fill="#002449"/>
<rect x="28.0039" y="67.1917" width="3.50055" height="17.4935" fill="#002449"/>
<rect x="38.5056" y="76.8132" width="3.50061" height="7.87206" fill="#002449"/>
<rect x="48.1321" y="68.9412" width="3.50055" height="15.7441" fill="#002449"/>
<rect x="57.7585" y="66.3171" width="3.50061" height="19.2428" fill="#002449"/>
<rect x="69.1353" y="75.9385" width="3.50061" height="8.74672" fill="#002449"/>
<rect x="78.7617" y="68.9412" width="3.50049" height="15.7441" fill="#002449"/>
<rect x="88.3882" y="66.3171" width="3.50049" height="19.2428" fill="#002449"/>
<rect x="98.8896" y="61.9436" width="3.50061" height="22.7415" fill="#002449"/>
<path fill-rule="evenodd" clip-rule="evenodd" d="M43.7569 39.2021C49.5475 39.2021 54.2579 34.4941 54.2579 28.7065C54.2579 22.919 49.5475 18.21 43.7569 18.21C37.9663 18.21 33.2549 22.919 33.2549 28.7065C33.2549 34.4941 37.9663 39.2021 43.7569 39.2021ZM45.7789 22.6078C47.7059 23.2487 49.2166 24.7591 49.8578 26.6855H45.7789V22.6078ZM41.7348 30.7274V22.6077C39.1674 23.4614 37.2988 25.8572 37.2988 28.7064C37.2988 32.2648 40.1956 35.1601 43.7568 35.1601C46.6066 35.1601 49.0035 33.2927 49.8577 30.7274H41.7348Z" fill="#002449"/>
</svg>
