<svg width="19" height="21" viewBox="0 0 19 21" fill="none" xmlns="http://www.w3.org/2000/svg">
<path d="M6.1922 1.60411H12.8078V1.49717C12.8078 0.695116 13.4958 0 14.2897 0C15.1365 0 15.8245 0.695116 15.8245 1.49717V1.60411H16.7242C17.9944 1.60411 19 2.62005 19 3.90334V18.5008C19 19.7306 17.9944 20.8 16.7242 20.8H2.27577C1.00557 20.8 0 19.7306 0 18.5008V3.90334C0 2.62005 1.00557 1.60411 2.27577 1.60411H3.17549V1.49717C3.17549 0.695116 3.86351 0 4.65738 0C5.50418 0 6.1922 0.695116 6.1922 1.49717V1.60411ZM12.8078 2.67352H6.1922V2.94087C6.1922 3.7964 5.50418 4.49152 4.65738 4.49152C3.86351 4.49152 3.17549 3.7964 3.17549 2.94087V2.67352H2.27577C1.58774 2.67352 1.0585 3.20823 1.0585 3.90334V5.45398H17.9415V3.90334C17.9415 3.20823 17.3593 2.67352 16.7242 2.67352H15.8245V2.94087C15.8245 3.7964 15.1365 4.49152 14.2897 4.49152C13.4958 4.49152 12.8078 3.7964 12.8078 2.94087V2.67352ZM14.2897 1.06941C14.078 1.06941 13.8663 1.28329 13.8663 1.49717V2.94087C13.8663 3.20823 14.078 3.42211 14.2897 3.42211C14.5543 3.42211 14.766 3.20823 14.766 2.94087V1.49717C14.766 1.28329 14.5543 1.06941 14.2897 1.06941ZM4.65738 1.06941C4.44568 1.06941 4.23398 1.28329 4.23398 1.49717V2.94087C4.23398 3.20823 4.44568 3.42211 4.65738 3.42211C4.92201 3.42211 5.1337 3.20823 5.1337 2.94087V1.49717C5.1337 1.28329 4.92201 1.06941 4.65738 1.06941ZM17.9415 6.52339H1.0585V18.5008C1.0585 19.1424 1.58774 19.7306 2.27577 19.7306H16.7242C17.3593 19.7306 17.9415 19.1424 17.9415 18.5008V6.52339Z" fill="#002449"/>
<path fill-rule="evenodd" clip-rule="evenodd" d="M3.75763 9.73162H5.13367C5.34537 9.73162 5.55707 9.89203 5.55707 10.1594V11.4961C5.55707 11.7635 5.34537 11.9774 5.13367 11.9774H3.75763C3.54593 11.9774 3.33423 11.7635 3.33423 11.4961V10.1594C3.33423 9.89203 3.54593 9.73162 3.75763 9.73162Z" fill="#002449"/>
<path fill-rule="evenodd" clip-rule="evenodd" d="M8.83839 9.73162H10.1615C10.4261 9.73162 10.5849 9.89203 10.5849 10.1594V11.4961C10.5849 11.7635 10.4261 11.9774 10.1615 11.9774H8.83839C8.57376 11.9774 8.36206 11.7635 8.36206 11.4961V10.1594C8.36206 9.89203 8.57376 9.73162 8.83839 9.73162Z" fill="#002449"/>
<path fill-rule="evenodd" clip-rule="evenodd" d="M13.8663 9.73162H15.1894C15.454 9.73162 15.6657 9.89203 15.6657 10.1594V11.4961C15.6657 11.7635 15.454 11.9774 15.1894 11.9774H13.8663C13.6016 11.9774 13.4429 11.7635 13.4429 11.4961V10.1594C13.4429 9.89203 13.6016 9.73162 13.8663 9.73162Z" fill="#002449"/>
<path fill-rule="evenodd" clip-rule="evenodd" d="M3.75763 14.2231H5.13367C5.34537 14.2231 5.55707 14.437 5.55707 14.7044V16.0411C5.55707 16.3085 5.34537 16.5224 5.13367 16.5224H3.75763C3.54593 16.5224 3.33423 16.3085 3.33423 16.0411V14.7044C3.33423 14.437 3.54593 14.2231 3.75763 14.2231Z" fill="#002449"/>
<path fill-rule="evenodd" clip-rule="evenodd" d="M8.83839 14.2231H10.1615C10.4261 14.2231 10.5849 14.437 10.5849 14.7044V16.0411C10.5849 16.3085 10.4261 16.5224 10.1615 16.5224H8.83839C8.57376 16.5224 8.36206 16.3085 8.36206 16.0411V14.7044C8.36206 14.437 8.57376 14.2231 8.83839 14.2231Z" fill="#002449"/>
<path fill-rule="evenodd" clip-rule="evenodd" d="M13.8663 14.2231H15.1894C15.454 14.2231 15.6657 14.437 15.6657 14.7044V16.0411C15.6657 16.3085 15.454 16.5224 15.1894 16.5224H13.8663C13.6016 16.5224 13.4429 16.3085 13.4429 16.0411V14.7044C13.4429 14.437 13.6016 14.2231 13.8663 14.2231Z" fill="#002449"/>
</svg>
