<svg width="109" height="118" viewBox="0 0 109 118" fill="none" xmlns="http://www.w3.org/2000/svg">
<path fill-rule="evenodd" clip-rule="evenodd" d="M105.049 81.0937C103.039 79.8351 100.568 79.7002 98.4352 80.7316L96.4705 81.6789C85.4502 68.8843 73.7514 63.9294 62.9957 63.0876V62.6133C63.5039 62.6424 64.0905 62.6646 64.752 62.6646H64.7529C68.9057 62.6646 74.6609 61.8622 78.4883 58.0404C83.0881 53.45 83.6261 45.9138 82.7034 39.4195L81.3668 39.2225C75.2275 38.3214 67.0655 39.5867 62.9957 44.8208V31.6472C70.6965 30.7434 76.6938 24.1998 76.6938 16.2739C76.6938 11.5205 74.5328 7.26483 71.1444 4.42155H89.0589V0.786133H61.1745C52.6172 0.786133 45.6552 7.7339 45.6552 16.2739C45.6552 21.0284 47.8163 25.2846 51.2047 28.1281H32.9922V31.7635H59.3533V37.4907C56.3829 34.4378 51.9154 33.457 47.6676 33.457C45.8612 33.457 44.8464 33.6092 43.75 33.7737C43.6104 33.7946 43.4694 33.8158 43.3254 33.8368C42.5249 39.463 42.926 45.8016 46.8637 49.7311C50.1042 52.9654 54.9488 53.6435 58.4427 53.6435C58.7687 53.6435 59.0686 53.6359 59.3533 53.6259V62.9559C42.8758 63.0209 29.1976 72.0278 24.5717 75.4749C23.8316 75.4724 23.1845 75.4705 22.6387 75.4693V72.2945H0V109.3H22.6387V104.826C30.0046 108.298 49.4896 117.118 57.3827 117.118C57.5624 117.118 57.7375 117.114 57.9056 117.103C71.2844 116.354 102.7 94.3022 104.857 92.7774C109.269 90.2104 109.434 83.8386 105.049 81.0937ZM79.429 42.6893C80.1247 53.9572 75.1487 58.6891 65.6527 59.009L72.5551 52.1186L69.9798 49.5483L63.0719 56.4442C63.3644 47.0126 68.0813 41.9922 79.429 42.6893ZM3.64233 105.665H18.9963V75.9299H3.64233V105.665ZM49.2976 16.274C49.2976 9.73801 54.6251 4.42157 61.1745 4.42157C67.7239 4.42157 73.0514 9.73801 73.0514 16.274C73.0514 22.8099 67.7239 28.1281 61.1745 28.1281C54.6251 28.1281 49.2976 22.8099 49.2976 16.274ZM51.768 44.8353L54.3433 42.265L59.3534 47.266C59.3505 47.2495 59.349 47.1986 59.3468 47.1176C59.3241 46.3068 59.2172 42.4815 56.6723 39.9414C54.2714 37.5442 49.9984 36.9443 46.612 37.1172C46.1943 45.9113 49.8881 49.4366 56.8864 49.9444L51.768 44.8353ZM93.0682 83.3195L79.3112 89.9532C79.0507 86.3633 76.0732 83.5132 72.4102 83.5132L61.3568 83.5167C55.8265 78.747 48.7765 75.8269 42.3641 75.6743C38.8776 75.5912 34.7251 75.5417 30.994 75.5117C42.5783 68.3272 69.4439 56.6833 93.0682 83.3195ZM102.821 89.7616C102.874 89.7243 102.927 89.6906 102.983 89.6604C105.056 88.4923 105.209 85.4846 103.114 84.1736C102.16 83.5771 101.033 83.515 100.021 84.0049L77.88 94.6808C76.6075 96.3155 74.6417 97.3874 72.4121 97.3874H49.7245V93.752H72.4121C74.236 93.752 75.7192 92.2716 75.7192 90.4503C75.7192 88.6291 74.2351 87.1486 72.4112 87.1486L59.9687 87.1522C59.9565 87.1443 59.91 87.1039 59.8309 87.0352C58.7191 86.0699 51.1764 79.5203 42.277 79.3098C35.6057 79.15 26.4688 79.1133 22.6387 79.1047V100.8C31.1324 104.871 51.3717 113.891 57.7011 113.475C70.2227 112.772 102.496 89.9923 102.821 89.7616Z" fill="#002449"/>
<path d="M61.2557 23.5643H64.3008V8.92114H57.7893V11.2021H61.2557V23.5643Z" fill="#002449"/>
<rect x="94.4163" y="0.786133" width="4.06946" height="3.25404" fill="#002449"/>
<rect x="24.4182" y="28.4453" width="4.06958" height="3.25402" fill="#002449"/>
<path fill-rule="evenodd" clip-rule="evenodd" d="M10.0196 100.034V96.4013C7.98095 95.6693 6.51147 93.7437 6.51147 91.4667C6.51147 88.5647 8.88474 86.2046 11.8019 86.2046C14.7191 86.2046 17.0924 88.5647 17.0924 91.4667C17.0924 93.7437 15.6229 95.6693 13.5843 96.4013V100.034H10.0196ZM13.5278 91.4667C13.5278 90.5213 12.7533 89.7507 11.802 89.7507C10.8507 89.7507 10.0762 90.5213 10.0762 91.4667C10.0762 92.4138 10.8508 93.1843 11.802 93.1843C12.7533 93.1843 13.5278 92.4138 13.5278 91.4667Z" fill="#002449"/>
<path d="M60.8918 72.7957L61.859 69.0622C52.9206 66.4963 45.0939 71.2785 44.7664 71.4844L46.6344 74.8155C46.7026 74.7758 53.4903 70.6701 60.8918 72.7957Z" fill="#002449"/>
<path d="M71.7776 75.6288H72.2885C73.2712 75.6288 74.068 74.9011 74.068 74.0018C74.068 73.1025 73.2712 72.3748 72.2885 72.3748H71.7776C70.7948 72.3748 69.998 73.1025 69.998 74.0018C69.998 74.9011 70.7948 75.6288 71.7776 75.6288Z" fill="#002449"/>
<path d="M78.2892 83.7638H78.8001C79.7827 83.7638 80.5795 83.0361 80.5795 82.1368C80.5795 81.2375 79.7827 80.5098 78.8001 80.5098H78.2892C77.3065 80.5098 76.5098 81.2375 76.5098 82.1368C76.5098 83.0361 77.3065 83.7638 78.2892 83.7638Z" fill="#002449"/>
<path d="M63.6382 80.5099H64.149C65.1317 80.5099 65.9283 79.7822 65.9283 78.8829C65.9283 77.9836 65.1317 77.2559 64.149 77.2559H63.6382C62.6556 77.2559 61.8589 77.9836 61.8589 78.8829C61.8589 79.7822 62.6556 80.5099 63.6382 80.5099Z" fill="#002449"/>
</svg>
