<svg xmlns="http://www.w3.org/2000/svg"  viewBox="0 0 333333 333333" shape-rendering="geometricPrecision" text-rendering="geometricPrecision" image-rendering="optimizeQuality" fill-rule="evenodd" clip-rule="evenodd">
  <path 
    d="M166667 0c92048 0 166667 74619 166667 166667s-74619 166667-166667 166667S0 258715 0 166667 74619 0 166667 0zm90493 110539c-6654 2976-13822 4953-21307 5835 7669-4593 13533-11870 16333-20535-7168 4239-15133 7348-23574 9011-6787-7211-16426-11694-27105-11694-20504 0-37104 16610-37104 37101 0 2893 320 5722 949 8450-30852-1564-58204-16333-76513-38806-3285 5666-5022 12109-5022 18661v4c0 12866 6532 24246 16500 30882-6083-180-11804-1876-16828-4626v464c0 17993 12789 33007 29783 36400-3113 845-6400 1313-9786 1313-2398 0-4709-247-7007-665 4746 14736 18448 25478 34673 25791-12722 9967-28700 15902-46120 15902-3006 0-5935-184-8860-534 16466 10565 35972 16684 56928 16684 68271 0 105636-56577 105636-105632 0-1630-36-3209-104-4806 7251-5187 13538-11733 18514-19185l17-17-3 2z"
    fill="currentColor"
  />
</svg>